HIERARCHY
ROOT Hips
{
	OFFSET 228.634003 92.561920 -263.051910
	CHANNELS 6 Xposition Yposition Zposition Zrotation Yrotation Xrotation 
	JOINT LeftUpLeg
	{
		OFFSET 0.103458 1.857820 10.548502
		CHANNELS 3 Zrotation Yrotation Xrotation
		JOINT LeftLeg
		{
			OFFSET 43.500000 -0.000023 -0.000011
			CHANNELS 3 Zrotation Yrotation Xrotation
			JOINT LeftFoot
			{
				OFFSET 42.372192 0.000038 0.000002
				CHANNELS 3 Zrotation Yrotation Xrotation
				JOINT LeftToe
				{
					OFFSET 17.299992 -0.000004 0.000006
					CHANNELS 3 Zrotation Yrotation Xrotation
					End Site
					{
						OFFSET 0.000000 0.000000 0.000000
					}
				}
			}
		}
	}
	JOINT RightUpLeg
	{
		OFFSET 0.103461 1.857814 -10.548508
		CHANNELS 3 Zrotation Yrotation Xrotation
		JOINT RightLeg
		{
			OFFSET 43.500042 -0.000015 0.000008
			CHANNELS 3 Zrotation Yrotation Xrotation
			JOINT RightFoot
			{
				OFFSET 42.372253 0.000008 0.000006
				CHANNELS 3 Zrotation Yrotation Xrotation
				JOINT RightToe
				{
					OFFSET 17.299973 -0.000014 0.000011
					CHANNELS 3 Zrotation Yrotation Xrotation
					End Site
					{
						OFFSET 0.000000 0.000000 0.000000
					}
				}
			}
		}
	}
	JOINT Spine
	{
		OFFSET 6.901966 -2.603737 -0.000007
		CHANNELS 3 Zrotation Yrotation Xrotation
		JOINT Spine1
		{
			OFFSET 12.588102 0.000017 0.000001
			CHANNELS 3 Zrotation Yrotation Xrotation
			JOINT Spine2
			{
				OFFSET 12.343197 -0.000013 0.000000
				CHANNELS 3 Zrotation Yrotation Xrotation
				JOINT Neck
				{
					OFFSET 25.832905 -0.000008 0.000000
					CHANNELS 3 Zrotation Yrotation Xrotation
					JOINT Head
					{
						OFFSET 11.766610 0.000009 -0.000002
						CHANNELS 3 Zrotation Yrotation Xrotation
						End Site
						{
							OFFSET 0.000000 0.000000 0.000000
						}
					}
				}
				JOINT LeftShoulder
				{
					OFFSET 19.745903 -1.480377 6.000115
					CHANNELS 3 Zrotation Yrotation Xrotation
					JOINT LeftArm
					{
						OFFSET 11.284125 -0.000014 -0.000024
						CHANNELS 3 Zrotation Yrotation Xrotation
						JOINT LeftForeArm
						{
							OFFSET 33.000046 -0.000012 0.000029
							CHANNELS 3 Zrotation Yrotation Xrotation
							JOINT LeftHand
							{
								OFFSET 25.199989 0.000034 0.000012
								CHANNELS 3 Zrotation Yrotation Xrotation
								End Site
								{
									OFFSET 0.000000 0.000000 0.000000
								}
							}
						}
					}
				}
				JOINT RightShoulder
				{
					OFFSET 19.746098 -1.480362 -6.000071
					CHANNELS 3 Zrotation Yrotation Xrotation
					JOINT RightArm
					{
						OFFSET 11.284137 -0.000006 -0.000008
						CHANNELS 3 Zrotation Yrotation Xrotation
						JOINT RightForeArm
						{
							OFFSET 33.000095 0.000017 0.000000
							CHANNELS 3 Zrotation Yrotation Xrotation
							JOINT RightHand
							{
								OFFSET 25.199778 0.000144 0.000423
								CHANNELS 3 Zrotation Yrotation Xrotation
								End Site
								{
									OFFSET 0.000000 0.000000 0.000000
								}
							}
						}
					}
				}
			}
		}
	}
}
MOTION
Frames: 15
Frame Time: 0.033333
-66.244270 18.277309 -390.168701 -163.951997 -51.364402 79.466505 97.452921 -11.008098 -175.178001 -69.893203 -5.716615 -13.223895 79.067813 8.102098 -5.225796 21.454557 0.003097 -0.000000 -171.733263 14.515504 -172.116013 -41.527072 1.632535 -2.295296 77.409184 5.505351 14.356924 21.454557 -0.003108 -0.000020 11.376869 -2.851656 -1.605777 12.840781 -5.507263 -3.522895 12.521711 -5.528292 -3.489506 -14.248292 -10.559024 -17.925673 -21.500237 7.258103 -24.188709 76.456796 -82.723358 102.358342 -72.682543 4.393180 -22.131247 -94.926270 -4.168292 2.815494 -36.458184 -10.676091 68.056640 172.479653 74.964031 -6.256980 58.978110 -74.510288 -54.578201 -124.047396 -2.974461 -3.616747 -45.817739 2.881933 -78.600014 
-65.349258 18.066010 -390.072601 -165.908491 -50.954772 78.623694 99.335751 -10.227906 -178.541787 -68.981052 -6.602386 -14.164203 79.018964 8.820114 -5.135858 21.454558 0.003091 -0.000004 -171.845401 13.682296 -172.050894 -42.355864 0.585073 -2.445026 77.676080 5.477069 13.896051 21.454558 -0.003108 -0.000014 11.391736 -2.765676 -1.372875 12.856323 -5.361468 -3.048576 12.537189 -5.379640 -3.016076 -14.046440 -11.406925 -17.649986 -21.146901 8.141392 -24.475191 74.179112 -82.925320 104.603521 -77.043755 2.619286 -15.482379 -89.359925 -7.121056 2.774970 -32.995080 -12.211469 65.275107 171.288317 75.153999 -7.469090 57.476424 -73.759069 -54.295680 -124.365901 -2.953859 -3.630704 -45.517333 2.742220 -79.296556 
-64.305496 17.841780 -389.895813 -168.081407 -50.354118 77.573928 101.668520 -9.642894 177.136940 -67.850225 -7.924025 -14.422697 78.949747 8.968585 -5.491086 21.454553 0.003089 0.000003 -171.554367 12.732496 -172.242549 -42.810714 -0.441169 -2.106490 78.053093 5.141098 13.670875 21.454560 -0.003109 -0.000021 11.468507 -2.717826 -1.194001 13.000262 -5.284087 -2.689344 12.681056 -5.300090 -2.657306 -14.108452 -11.092069 -17.287525 -20.959805 8.113774 -23.992727 69.626033 -83.284253 109.095613 -83.688395 -0.463833 -5.186800 -79.504338 -11.727520 2.665339 -38.579538 -21.428108 61.129613 169.878853 75.046437 -8.912875 54.516067 -72.886964 -52.995547 -124.706400 -2.996931 -3.641130 -45.196007 2.686011 -79.875524 
-63.116909 17.620041 -389.562897 -170.845707 -49.534629 76.198212 104.714614 -9.576993 171.827465 -66.417258 -8.527314 -13.566496 78.063776 8.205815 -6.188005 21.454550 0.003096 -0.000005 -170.737654 11.699995 -173.963224 -42.561627 -1.004140 -1.894978 78.406474 4.982825 13.808237 21.454555 -0.003109 -0.000014 11.622980 -2.701245 -1.162668 13.307659 -5.250627 -2.631747 12.988453 -5.266288 -2.599919 -14.688071 -11.311431 -16.495242 -20.583801 8.107834 -23.267200 76.412557 -82.331510 102.432716 -84.715902 -1.195292 -1.013731 -75.585769 -14.812612 2.713436 -52.865886 -29.852540 67.873284 165.297449 74.776310 -13.603643 49.635716 -71.851104 -50.098147 -125.006805 -3.190022 -3.639754 -44.534087 2.828401 -79.604209 
-61.785110 17.234770 -389.201813 -174.411490 -48.910148 75.013796 107.819064 -9.537006 167.924313 -64.442828 -9.422338 -11.439116 74.853389 6.438094 -6.848240 21.454548 0.003093 -0.000005 -169.746115 10.051106 -177.588566 -42.031236 -0.917476 -1.386583 78.475513 4.415211 13.145276 21.454558 -0.003111 -0.000012 11.744708 -2.657529 -1.006338 13.543072 -5.178798 -2.319884 13.223827 -5.192569 -2.288502 -14.435005 -11.082450 -16.494683 -20.571647 7.959271 -23.119016 89.171979 -83.395326 89.663322 -81.415923 1.851220 -7.055694 -80.946976 -11.500888 2.712134 -49.532225 -25.553225 68.138712 161.761802 74.557505 -17.224012 44.939988 -70.485865 -47.762536 -125.416617 -3.308885 -3.643038 -44.726456 3.692165 -79.874520 
-60.230629 16.726500 -388.696014 -177.948093 -48.590632 73.963183 111.001338 -8.852209 165.969157 -61.511188 -11.014734 -7.985692 69.335074 2.769535 -9.750875 21.454555 0.003088 0.000010 -168.383356 8.553611 179.552955 -40.987210 -0.921252 -1.190455 78.356634 3.927007 11.851944 21.454557 -0.003110 -0.000011 11.745812 -2.696363 -0.575755 13.527373 -5.306724 -1.465120 13.207882 -5.315336 -1.432947 -13.081074 -10.640691 -16.560024 -20.711094 8.877816 -23.346266 97.743791 -84.009954 81.057215 -81.447800 4.183375 -9.000472 -82.583968 -11.153581 2.759292 -48.417025 -24.244303 68.177534 167.521236 74.077616 -11.356986 38.805867 -68.556494 -45.049896 -125.440112 -3.335738 -3.646728 -44.425302 4.912655 -79.965758 
-59.535870 16.630871 -388.352814 179.954106 -48.467996 72.160409 113.000303 -8.759991 167.043587 -58.780335 -9.917703 -5.544771 67.593157 -1.677138 -16.383734 21.454550 0.003094 -0.000004 -167.872294 7.818597 176.298985 -40.010289 -0.518374 0.347854 78.389145 2.628951 11.137172 21.454560 -0.003110 -0.000019 11.680332 -2.846529 -0.470293 13.395187 -5.619297 -1.269308 13.075484 -5.626728 -1.235238 -10.816499 -12.111728 -16.348003 -21.484182 9.909343 -23.900867 108.176106 -84.297245 70.596139 -80.308941 5.544191 -10.165740 -84.127536 -10.274639 2.765246 -47.905574 -24.349792 67.770708 171.346306 73.258601 -7.468107 30.726525 -66.097325 -40.213572 -125.367494 -3.290842 -3.646971 -43.731314 6.104268 -79.408640 
-57.976681 16.450520 -388.200806 176.439796 -48.109551 71.230800 110.650888 -8.087295 178.140814 -63.624066 -9.365968 -11.924186 65.994333 2.960617 -16.240940 21.454555 0.003084 0.000013 -166.403352 6.824298 174.079980 -39.035067 0.060053 2.047882 79.663966 1.021527 10.223396 21.454558 -0.003111 -0.000014 11.612657 -2.896663 -0.300036 13.252543 -5.739749 -0.931886 12.932738 -5.745123 -0.897071 -8.268199 -14.304240 -16.411893 -22.419201 11.793806 -25.223895 123.691939 -85.240699 54.967962 -79.909252 5.874127 -10.092731 -85.347578 -9.618906 2.772881 -47.993991 -25.064472 67.762846 171.043305 72.282594 -7.809200 25.848614 -62.675824 -36.932100 -125.824010 -3.274314 -3.665850 -44.007011 7.679447 -78.692624 
-57.074478 16.595711 -387.863892 174.584498 -47.930450 69.571904 109.350024 -8.903702 -176.479589 -68.879316 -8.033715 -9.842212 65.616849 5.283081 -5.571548 21.454553 0.003090 -0.000001 -165.297121 6.810299 172.328063 -36.978378 1.083910 4.030010 79.880879 -0.876814 8.394227 21.454555 -0.003109 -0.000021 11.433177 -3.176045 -0.205070 12.894212 -6.309324 -0.764937 12.574032 -6.313682 -0.726661 -5.480639 -15.489952 -16.671145 -23.810200 13.038606 -26.232188 139.647247 -85.984971 38.900810 -80.229492 5.878140 -9.101955 -85.468131 -9.411091 2.763582 -47.908391 -25.980093 67.769499 172.853073 71.594084 -5.971513 21.460878 -59.811693 -34.089829 -125.874799 -3.153348 -3.676054 -44.451271 9.095024 -78.131634 
-56.071362 16.731461 -387.628204 173.654295 -48.105186 67.678405 108.520996 -9.544693 -174.113256 -73.494133 -6.341154 -9.042488 70.005744 4.277078 -7.181487 21.454555 0.003087 0.000006 -165.140382 7.082310 171.852450 -35.957627 1.774736 5.498834 80.489142 -2.037671 8.109891 21.454558 -0.003108 -0.000020 11.035596 -3.561295 -0.166940 12.103497 -7.085447 -0.708022 11.782741 -7.089445 -0.664998 -2.958829 -16.189049 -17.008592 -24.765762 13.728753 -26.908867 154.054261 -86.302603 24.412194 -80.702892 6.221166 -7.662454 -85.133356 -9.468049 2.752824 -47.118067 -26.375783 68.293183 175.210089 70.838692 -3.567927 19.246332 -57.247879 -32.736701 -125.854008 -3.121327 -3.677430 -42.574847 9.431562 -77.169847 
-55.411320 16.817329 -387.403503 172.004394 -48.712199 67.128909 107.725552 -10.638198 -171.554941 -77.233136 -6.124698 -9.481471 71.180345 4.598976 -7.326222 21.454555 0.003091 0.000004 -165.362268 6.342896 172.545960 -34.914059 2.266767 6.288749 80.502836 -2.739728 7.511477 21.454563 -0.003109 -0.000021 10.608128 -3.750628 -0.216811 11.253449 -7.462257 -0.800185 10.932417 -7.466829 -0.754839 -1.604257 -17.354411 -17.197110 -25.163791 15.044871 -27.826589 168.075451 -86.346821 10.319834 -81.198976 6.611227 -5.672195 -84.680822 -9.798133 2.756088 -46.097654 -26.412692 68.914471 176.753903 70.692608 -1.982191 19.204706 -55.546899 -33.934945 -126.064091 -2.575651 -3.722775 -40.724033 10.698654 -74.767321 
-54.739159 16.869659 -387.181610 170.076505 -49.258491 67.405484 107.479160 -11.933897 -171.324312 -80.277706 -4.811961 -11.017635 71.413658 5.737119 -7.143735 21.454553 0.003089 0.000005 -165.273694 5.375307 174.125018 -33.601491 2.931696 6.457699 80.505439 -2.863114 7.536919 21.454553 -0.003112 -0.000014 10.205279 -3.886720 -0.322613 10.455323 -7.728287 -0.998410 10.134097 -7.734038 -0.951440 -0.434697 -17.331006 -17.514301 -25.898004 15.622179 -28.401940 174.785019 -86.564697 3.568907 -81.696221 6.890603 -3.470517 -83.635147 -10.305054 2.745729 -45.028036 -26.597600 69.395282 177.705581 70.896298 -0.997910 20.431625 -54.741480 -35.065723 -125.650510 -2.628365 -3.703142 -39.009980 12.658468 -70.862386 
-53.967430 16.899240 -387.014008 167.961004 -49.588570 68.073210 107.727786 -13.275606 -171.562918 -82.853835 -3.833684 -12.729471 71.718120 7.011965 -6.979130 21.454550 0.003097 -0.000008 -164.808845 4.453212 176.122575 -32.261121 3.706987 6.058867 80.595064 -2.490867 7.999191 21.454558 -0.003109 -0.000016 9.843114 -4.000122 -0.435806 9.738986 -7.949328 -1.210560 9.417603 -7.956349 -1.162225 0.509647 -17.072519 -17.768756 -26.215243 16.256421 -28.851078 -179.607406 -86.973143 -2.074399 -82.492614 6.976738 -1.173354 -82.060290 -11.005679 2.725943 -44.061390 -26.882170 69.739783 179.933493 71.175325 1.300794 20.805076 -53.499653 -35.262009 -125.206807 -2.882432 -3.668541 -36.090825 14.510870 -65.200822 
-53.160450 16.922600 -386.873291 165.931496 -49.838019 68.693507 108.286434 -14.914094 -171.994477 -85.054788 -3.233318 -13.269102 71.738215 7.247140 -7.419196 21.454550 0.003092 0.000001 -164.385947 3.506305 177.939255 -31.241965 4.114406 5.435312 80.288669 -1.949854 8.365272 21.454560 -0.003108 -0.000016 9.443979 -4.116012 -0.568496 8.950124 -8.175713 -1.458116 8.628585 -8.184248 -1.408383 1.702766 -16.587541 -17.932021 -26.580738 16.821316 -29.127765 -170.725879 -87.434706 -10.998546 -83.282334 7.358077 0.910431 -80.240434 -11.834063 2.704785 -43.061419 -27.190975 69.737953 -176.834185 71.697602 4.634514 21.709145 -52.393063 -35.402694 -125.279002 -3.148114 -3.653227 -31.145284 15.126157 -57.221518 
-52.323711 16.923580 -386.761108 163.735713 -49.984530 69.380180 108.977594 -16.884287 -172.751357 -87.229746 -2.634899 -12.831354 71.976595 6.865266 -7.613887 21.454550 0.003095 -0.000009 -164.027512 2.641404 179.909095 -30.823237 4.119664 5.170015 80.132237 -1.658350 8.731095 21.454557 -0.003112 -0.000010 9.036263 -4.167227 -0.781027 8.148240 -8.269213 -1.858892 7.826674 -8.280141 -1.808584 2.987878 -16.401765 -17.956130 -26.905329 17.512158 -29.361590 -147.335554 -88.283993 -34.452126 -83.559052 8.437521 1.773413 -78.579189 -12.431072 2.674700 -42.076605 -27.322594 69.849025 -170.830380 72.896389 10.814525 24.591878 -50.840428 -36.043280 -127.490002 -3.620158 -3.706430 -24.110112 13.571196 -46.850347 
